<svg width="100%" height="100%" viewBox="0 0 72 72" version="1.1" xmlns="http://www.w3.org/2000/svg" xmlns:xlink="http://www.w3.org/1999/xlink">
    <!-- Generator: Sketch 43.1 (39012) - http://www.bohemiancoding.com/sketch -->
    <desc>Created with Sketch.</desc>
    <defs></defs>
    <g id="Page-1" stroke="none" stroke-width="1" fill="none" fill-rule="evenodd">
        <g id="Artboard" transform="translate(-181.000000, -371.000000)">
            <g id="Group-2" transform="translate(181.000000, 371.000000)">
                <g id="Group" transform="translate(32.547945, 0.000000)">
                    <rect id="Rectangle" fill="#6E6E6E" x="0" y="0" width="6.90410959" height="18" rx="3.45205479"></rect>
                    <rect id="Rectangle" fill="#ABABAB" x="0" y="54" width="6.90410959" height="18" rx="3.45205479"></rect>
                </g>
                <g id="Group" transform="translate(36.041522, 36.023973) rotate(30.000000) translate(-36.041522, -36.023973) translate(32.541522, 0.023973)">
                    <rect id="Rectangle" fill="#757575" x="2.13162821e-14" y="-2.48689958e-14" width="6.90410959" height="18" rx="3.45205479"></rect>
                    <rect id="Rectangle" fill="#B4B4B4" x="-7.10542736e-15" y="54" width="6.90410959" height="18" rx="3.45205479"></rect>
                </g>
                <g id="Group" transform="translate(36.023973, 36.041522) rotate(60.000000) translate(-36.023973, -36.041522) translate(32.523973, 0.041522)">
                    <rect id="Rectangle" fill="#828282" x="2.84217094e-14" y="0" width="6.90410959" height="18" rx="3.45205479"></rect>
                    <rect id="Rectangle" fill="#BDBDBD" x="2.13162821e-14" y="54" width="6.90410959" height="18" rx="3.45205479"></rect>
                </g>
                <g id="Group" transform="translate(36.000000, 36.047945) rotate(90.000000) translate(-36.000000, -36.047945) translate(32.500000, 0.047945)">
                    <rect id="Rectangle" fill="#8C8C8C" x="-1.42108547e-14" y="0" width="6.90410959" height="18" rx="3.45205479"></rect>
                    <rect id="Rectangle" fill="#CBCBCB" x="-2.13162821e-14" y="54" width="6.90410959" height="18" rx="3.45205479"></rect>
                </g>
                <g id="Group" transform="translate(35.976027, 36.041522) rotate(120.000000) translate(-35.976027, -36.041522) translate(32.476027, 0.041522)">
                    <rect id="Rectangle" fill="#969696" x="-7.10542736e-15" y="-2.84217094e-14" width="6.90410959" height="18" rx="3.45205479"></rect>
                    <rect id="Rectangle" fill="#D5D5D5" x="-5.32907052e-15" y="54" width="6.90410959" height="18" rx="3.45205479"></rect>
                </g>
                <g id="Group" transform="translate(35.958478, 36.023973) rotate(150.000000) translate(-35.958478, -36.023973) translate(32.458478, 0.023973)">
                    <rect id="Rectangle" fill="#A1A1A1" x="-1.42108547e-14" y="1.42108547e-14" width="6.90410959" height="18" rx="3.45205479"></rect>
                    <rect id="Rectangle" fill="#DEDEDE" x="-7.10542736e-15" y="54" width="6.90410959" height="18" rx="3.45205479"></rect>
                </g>
            </g>
        </g>
    </g>
</svg>