

<svg width="auto" height="auto" viewBox="0 0 27 27" version="1.1" xmlns="http://www.w3.org/2000/svg" xmlns:xlink="http://www.w3.org/1999/xlink">
    <!-- Generator: Sketch 43.1 (39012) - http://www.bohemiancoding.com/sketch -->
    <desc>Created with Sketch.</desc>
    <defs></defs>
    <g id="Page-1" stroke="none" stroke-width="1" fill="none" fill-rule="evenodd">
        <path d="M15,12 L15,6.50863659 C15,5.66642015 14.3284271,5 13.5,5 C12.6657972,5 12,5.67543961 12,6.50863659 L12,12 L6.50863659,12 C5.66642015,12 5,12.6715729 5,13.5 C5,14.3342028 5.67543961,15 6.50863659,15 L12,15 L12,20.4913634 C12,21.3335799 12.6715729,22 13.5,22 C14.3342028,22 15,21.3245604 15,20.4913634 L15,15 L20.4913634,15 C21.3335799,15 22,14.3284271 22,13.5 C22,12.6657972 21.3245604,12 20.4913634,12 L15,12 Z M13.5,27 C6.04415588,27 0,20.9558441 0,13.5 C0,6.04415588 6.04415588,0 13.5,0 C20.9558441,0 27,6.04415588 27,13.5 C27,20.9558441 20.9558441,27 13.5,27 Z" id="Combined-Shape-Copy-2" fill="#C7CED7" transform="translate(13.500000, 13.500000) rotate(45.000000) translate(-13.500000, -13.500000) "></path>
    </g>
</svg>