<?xml version="1.0" standalone="no"?>
<!DOCTYPE svg PUBLIC "-//W3C//DTD SVG 1.1//EN" "http://www.w3.org/Graphics/SVG/1.1/DTD/svg11.dtd"><svg t="1544373149967"
  class="icon" style="" viewBox="0 0 1024 1024" version="1.1" xmlns="http://www.w3.org/2000/svg" p-id="3728"
  xmlns:xlink="http://www.w3.org/1999/xlink" width="auto" height="auto">
  <defs>
    <style type="text/css"></style>
  </defs>
  <path d="M341.333333 128l554.666667 0q52.992 0 90.496 37.504t37.504 90.496l0 512q0 52.992-37.504 90.496t-90.496 37.504l-554.666667 0-341.333333-384zM896 213.333333l-516.352 0-265.344 298.666667 265.344 298.666667 516.352 0q17.664 0 30.165333-12.501333t12.501333-30.165333l0-512q0-17.664-12.501333-30.165333t-30.165333-12.501333zM810.666667 384q0 18.005333-12.330667 30.336l-98.005333 97.664 98.005333 97.664q12.330667 12.330667 12.330667 30.336 0 18.346667-12.16 30.506667t-30.506667 12.16q-18.005333 0-30.336-12.330667l-97.664-98.005333-97.664 98.005333q-12.330667 12.330667-30.336 12.330667-17.664 0-30.165333-12.501333t-12.501333-30.165333q0-17.322667 12.330667-30.336l98.005333-97.664-98.005333-97.664q-12.330667-13.013333-12.330667-30.336 0-17.664 12.501333-30.165333t30.165333-12.501333q18.005333 0 30.336 12.330667l97.664 98.005333 97.664-98.005333q12.330667-12.330667 30.336-12.330667 18.346667 0 30.506667 12.16t12.16 30.506667z"
    p-id="3729" fill="#333333"></path>
</svg>