
<svg width="auto" height="auto" viewBox="0 0 22 13" version="1.1" xmlns="http://www.w3.org/2000/svg" xmlns:xlink="http://www.w3.org/1999/xlink">
    <!-- Generator: Sketch 43.1 (39012) - http://www.bohemiancoding.com/sketch -->
    <desc>Created with Sketch.</desc>
    <defs></defs>
    <g id="Page-1" stroke="none" stroke-width="1" fill="none" fill-rule="evenodd">
        <path d="M18.8726698,3.75034054 C18.6013585,3.47979634 18.2270586,3.3137085 17.8137085,3.3137085 C17.8128346,3.3137085 17.8119609,3.31370924 17.8110874,3.31371072 C17.8102149,3.31370923 17.8093412,3.3137085 17.8084673,3.3137085 L4.81894965,3.3137085 C3.98083825,3.3137085 3.3137085,3.98528137 3.3137085,4.8137085 C3.3137085,5.64791127 3.98762792,6.3137085 4.81894965,6.3137085 L16.3137085,6.3137085 L16.3137085,17.8084673 C16.3137085,18.6465787 16.9852814,19.3137085 17.8137085,19.3137085 C18.6479113,19.3137085 19.3137085,18.6397891 19.3137085,17.8084673 L19.3137085,4.81894965 C19.3137085,4.81807576 19.3137078,4.81720205 19.3137063,4.81632853 C19.3137078,4.81545607 19.3137085,4.81458237 19.3137085,4.8137085 C19.3137085,4.39748284 19.1459354,4.02318195 18.8745479,3.75258903 Z" id="Rectangle-Copy-4" fill="#BABFC9" transform="translate(11.313708, 11.313708) rotate(-45.000000) translate(-11.313708, -11.313708) "></path>
    </g>
</svg>