
<svg width="auto" height="auto" viewBox="0 0 22 13" version="1.1" xmlns="http://www.w3.org/2000/svg" xmlns:xlink="http://www.w3.org/1999/xlink">
    <!-- Generator: Sketch 43.1 (39012) - http://www.bohemiancoding.com/sketch -->
    <desc>Created with Sketch.</desc>
    <defs></defs>
    <g id="Page-1" stroke="none" stroke-width="1" fill="none" fill-rule="evenodd">
        <path d="M18.8726698,-5.24965946 C18.6013585,-5.52020366 18.2270586,-5.6862915 17.8137085,-5.6862915 C17.8128346,-5.6862915 17.8119609,-5.68629076 17.8110874,-5.68628928 C17.8102149,-5.68629077 17.8093412,-5.6862915 17.8084673,-5.6862915 L4.81894965,-5.6862915 C3.98083825,-5.6862915 3.3137085,-5.01471863 3.3137085,-4.1862915 C3.3137085,-3.35208873 3.98762792,-2.6862915 4.81894965,-2.6862915 L16.3137085,-2.6862915 L16.3137085,8.80846734 C16.3137085,9.64657874 16.9852814,10.3137085 17.8137085,10.3137085 C18.6479113,10.3137085 19.3137085,9.63978908 19.3137085,8.80846734 L19.3137085,-4.18105035 C19.3137085,-4.18192424 19.3137078,-4.18279795 19.3137063,-4.18367147 C19.3137078,-4.18454393 19.3137085,-4.18541763 19.3137085,-4.1862915 C19.3137085,-4.60251716 19.1459354,-4.97681805 18.8745479,-5.24741097 Z" id="Rectangle-Copy-3" fill="#BABFC9" transform="translate(11.313708, 2.313708) rotate(135.000000) translate(-11.313708, -2.313708) "></path>
    </g>
</svg>