
<svg width="auto" height="auto" viewBox="0 0 13 22" version="1.1" xmlns="http://www.w3.org/2000/svg" xmlns:xlink="http://www.w3.org/1999/xlink">
    <!-- Generator: Sketch 43.1 (39012) - http://www.bohemiancoding.com/sketch -->
    <desc>Created with Sketch.</desc>
    <defs></defs>
    <g id="Page-1" stroke="none" stroke-width="1" fill="none" fill-rule="evenodd">
        <path d="M9.87266982,3.75034054 C9.60135851,3.47979634 9.22705863,3.3137085 8.8137085,3.3137085 C8.81283461,3.3137085 8.8119609,3.31370924 8.81108738,3.31371072 C8.81021491,3.31370923 8.80934121,3.3137085 8.80846734,3.3137085 L-4.18105035,3.3137085 C-5.01916175,3.3137085 -5.6862915,3.98528137 -5.6862915,4.8137085 C-5.6862915,5.64791127 -5.01237208,6.3137085 -4.18105035,6.3137085 L7.3137085,6.3137085 L7.3137085,17.8084673 C7.3137085,18.6465787 7.98528137,19.3137085 8.8137085,19.3137085 C9.64791127,19.3137085 10.3137085,18.6397891 10.3137085,17.8084673 L10.3137085,4.81894965 C10.3137085,4.81807576 10.3137078,4.81720205 10.3137063,4.81632853 C10.3137078,4.81545607 10.3137085,4.81458237 10.3137085,4.8137085 C10.3137085,4.39748284 10.1459354,4.02318195 9.87454791,3.75258903 Z" id="Rectangle-Copy-2" fill="#BABFC9" transform="translate(2.313708, 11.313708) rotate(45.000000) translate(-2.313708, -11.313708) "></path>
    </g>
</svg>