
<svg width="auto" height="auto" viewBox="0 0 36 36" version="1.1" xmlns="http://www.w3.org/2000/svg" xmlns:xlink="http://www.w3.org/1999/xlink">
    <desc>Created with Sketch.</desc>
    <defs></defs>
    <g id="Page-1" stroke="none" stroke-width="1" fill="none" fill-rule="evenodd">
        <path d="M18,36 C8.0588745,36 0,27.9411255 0,18 C0,8.0588745 8.0588745,0 18,0 C27.9411255,0 36,8.0588745 36,18 C36,27.9411255 27.9411255,36 18,36 Z M16,14 L16,30 L19,30 L19,14 L16,14 Z M17.5,11 C18.8807119,11 20,9.88071187 20,8.5 C20,7.11928813 18.8807119,6 17.5,6 C16.1192881,6 15,7.11928813 15,8.5 C15,9.88071187 16.1192881,11 17.5,11 Z" id="Combined-Shape" fill="#3484FC"></path>
    </g>
</svg>