
<svg width="100%" height="100%" viewBox="0 0 28 28" version="1.1" xmlns="http://www.w3.org/2000/svg" xmlns:xlink="http://www.w3.org/1999/xlink">
    <!-- Generator: Sketch 43.1 (39012) - http://www.bohemiancoding.com/sketch -->
    <desc>Created with Sketch.</desc>
    <defs></defs>
    <g id="Page-1" stroke="none" stroke-width="1" fill="none" fill-rule="evenodd">
        <g id="Group">
            <path d="M0,14 C0,6.2680135 6.26631345,0 14,0 C21.7319865,0 28,6.26631345 28,14 C28,21.7319865 21.7336865,28 14,28 C6.2680135,28 0,21.7336865 0,14 Z M2,14 C2,20.6288742 7.372583,26 14,26 C20.6288742,26 26,20.627417 26,14 C26,7.37112582 20.627417,2 14,2 C7.37112582,2 2,7.372583 2,14 Z" id="Combined-Shape" fill="#FF783C"></path>
            <rect id="Rectangle" fill="#F9783F" opacity="0.0500000007" x="2" y="2" width="24" height="24" rx="12"></rect>
            <path d="M20.1283065,7.63173359 C20.1271656,7.63172986 20.1260243,7.63172798 20.1248825,7.63172798 L8.13857346,7.63172798 C7.58167674,7.63172798 7.13172798,8.07944323 7.13172798,8.63172798 C7.13172798,9.18786316 7.58250806,9.63172798 8.13857346,9.63172798 L19.131728,9.63172798 L19.131728,15.6341833 C19.131728,16.1854166 19.5794432,16.631728 20.131728,16.631728 C20.6878632,16.631728 21.131728,16.185112 21.131728,15.6341833 L21.131728,8.62927263 C21.131728,8.07803938 20.6840127,7.63172798 20.131728,7.63172798 C20.1305861,7.63172798 20.1294448,7.63172987 20.1283039,7.63173363 Z" id="Rectangle-2-Copy" fill="#FF783C" transform="translate(14.131728, 12.131728) rotate(-225.000000) translate(-14.131728, -12.131728) "></path>
        </g>
    </g>
</svg>
